<?xml version="1.0" encoding="utf-8"?>
<!-- Generator: Adobe Illustrator 19.0.0, SVG Export Plug-In . SVG Version: 6.00 Build 0)  -->
<svg version="1.1" id="Calque_1" xmlns="http://www.w3.org/2000/svg" xmlns:xlink="http://www.w3.org/1999/xlink" x="0px" y="0px"
	 viewBox="0 0 187.1 56.7" style="enable-background:new 0 0 187.1 56.7;" xml:space="preserve">
<style type="text/css">
	.st0{fill-rule:evenodd;clip-rule:evenodd;fill:none;}
	.st1{fill:#1D1D1B;}
	.st2{fill-rule:evenodd;clip-rule:evenodd;fill:#E30613;}
	.st3{fill:#FFFFFF;}
</style>
<rect class="st0" width="187.1" height="56.7"/>
<g>
	<path class="st1" d="M42,11.7v-0.6c0.2-0.1,0.5-0.1,0.8-0.1V8.5h-3.5V11c0.3,0,0.6,0.1,0.8,0.1v0.6h-2.6v-0.5
		c0.3-0.1,0.6-0.1,0.9-0.1V5.5c-0.3,0-0.6-0.1-0.9-0.1V4.8h2.6v0.6c-0.3,0.1-0.5,0.1-0.8,0.1v2.2h3.5V5.5c-0.3,0-0.6-0.1-0.8-0.1
		V4.8h2.6v0.5c-0.3,0.1-0.6,0.1-0.9,0.1V11c0.3,0,0.6,0.1,0.9,0.1v0.5H42z"/>
	<path class="st1" d="M49.7,11.7v-0.5c0.2-0.1,0.5-0.1,0.8-0.1l-0.4-1.1h-2.9L46.8,11c0.3,0,0.6,0.1,0.8,0.1v0.5h-2.4v-0.6
		c0.2,0,0.4-0.1,0.6-0.1l2.3-6.2h1.1l2.3,6.2c0.2,0,0.4,0.1,0.6,0.1v0.6H49.7z M49,6.8c-0.1-0.3-0.2-0.7-0.3-1h0
		c-0.1,0.3-0.2,0.7-0.3,1l-0.9,2.4h2.4L49,6.8z"/>
</g>
<g>
	<path class="st1" d="M58.3,5.5v3.6c0,1.8-0.9,2.7-2.7,2.7c-2.2,0-2.6-1.2-2.6-2.4V5.5c-0.2,0-0.5-0.1-0.7-0.1V4.8h2.5v0.6
		c-0.2,0.1-0.5,0.1-0.8,0.1v3.8c0,0.9,0.3,1.7,1.7,1.7c1.2,0,1.8-0.5,1.8-1.9V5.5c-0.3,0-0.6-0.1-0.8-0.1V4.8H59v0.6
		C58.8,5.4,58.6,5.4,58.3,5.5z"/>
</g>
<g>
	<path class="st1" d="M65.1,6.5h-0.6c-0.1-0.4-0.1-0.7-0.1-0.9h-1.4V11c0.3,0,0.6,0.1,0.9,0.1v0.5h-2.7v-0.5
		c0.3-0.1,0.6-0.1,0.9-0.1V5.6h-1.4c0,0.3-0.1,0.6-0.1,0.9h-0.6V4.8h5.3V6.5z"/>
	<path class="st1" d="M65.9,11.7v-0.5c0.3-0.1,0.6-0.1,0.9-0.1V5.5c-0.3,0-0.6-0.1-0.9-0.1V4.8h4.5v1.6h-0.7
		c-0.1-0.3-0.1-0.6-0.1-0.9h-1.8v2.3h1.5c0-0.3,0.1-0.5,0.1-0.7h0.6v2.1h-0.6c-0.1-0.2-0.1-0.5-0.1-0.7h-1.5v2.5h1.9
		c0-0.3,0.1-0.6,0.1-0.9h0.7v1.6H65.9z"/>
	<path class="st1" d="M74.2,11.7v-0.5c0.3-0.1,0.6-0.1,0.9-0.1V5.5c-0.3,0-0.6-0.1-0.9-0.1V4.8h4.5v1.6H78c-0.1-0.3-0.1-0.6-0.1-0.9
		H76v2.3h1.5c0-0.3,0.1-0.5,0.1-0.7h0.6v2.1h-0.6c-0.1-0.2-0.1-0.5-0.1-0.7H76v2.5h1.9c0-0.3,0.1-0.6,0.1-0.9h0.7v1.6H74.2z
		 M76.5,4.3l-0.4-0.5l1.4-1.1L78,3.2L76.5,4.3z"/>
	<path class="st1" d="M84.4,6.6c-0.1-0.3-0.1-0.6-0.1-0.9c-0.4-0.1-0.7-0.1-1-0.1c-1.5,0-2.2,1.2-2.2,2.7c0,1.7,0.7,2.7,2.4,2.7
		c0.5,0,1.2-0.1,1.6-0.4l0.1,0.9c-0.6,0.2-1.2,0.3-1.9,0.3c-2.1,0-3.2-1.2-3.2-3.4c0-2.1,1-3.7,3.4-3.7c0.5,0,1.1,0.1,1.6,0.2v1.7
		H84.4z"/>
</g>
<g>
	<path class="st1" d="M89.2,11.8c-2.1,0-3.1-1.4-3.1-3.5c0-2.3,1.5-3.6,3.3-3.6c1.9,0,3.1,1.2,3.1,3.5C92.5,10.5,91,11.8,89.2,11.8z
		 M89.3,5.5c-1.1,0-2.2,0.9-2.2,2.7c0,1.6,0.7,2.8,2.2,2.8c1.1,0,2.2-0.9,2.2-2.7C91.5,6.5,90.7,5.5,89.3,5.5z"/>
	<path class="st1" d="M93.5,11.7v-0.5c0.3-0.1,0.6-0.1,0.9-0.1V5.5c-0.3,0-0.6-0.1-0.9-0.1V4.8h2.7v0.5c-0.3,0.1-0.6,0.1-0.9,0.1
		v5.4h1.8c0-0.3,0.1-0.6,0.2-0.9h0.6v1.7H93.5z"/>
	<path class="st1" d="M98.6,11.7v-0.5c0.3-0.1,0.6-0.1,0.9-0.1V5.5c-0.3,0-0.6-0.1-0.9-0.1V4.8h4.5v1.6h-0.7
		c-0.1-0.3-0.1-0.6-0.1-0.9h-1.8v2.3h1.5c0-0.3,0.1-0.5,0.1-0.7h0.6v2.1h-0.6c-0.1-0.2-0.1-0.5-0.1-0.7h-1.5v2.5h1.9
		c0-0.3,0.1-0.6,0.1-0.9h0.7v1.6H98.6z"/>
</g>
<g>
	<path class="st1" d="M40.1,23.1c-0.7,0-1.4,0-1.7,0h-0.9v-0.5c0.3-0.1,0.6-0.1,0.9-0.1v-5.5c-0.3,0-0.6-0.1-0.9-0.1v-0.5h0.9
		c0.5,0,1.3,0,2.1,0c2.2,0,3.5,1,3.5,3.4C43.9,21.9,42.3,23.1,40.1,23.1z M40.3,16.9c-0.4,0-0.8,0-1,0v5.3c0.3,0,0.6,0.1,0.9,0.1
		c1.6,0,2.7-0.8,2.7-2.7C42.9,17.9,42.1,16.9,40.3,16.9z"/>
</g>
<g>
	<path class="st1" d="M45.1,18.2c0.7-0.7,0.7-1.2,0.4-1.5c-0.3-0.4-0.1-0.9,0.4-0.9c0.7,0,1.1,1.3-0.5,2.7L45.1,18.2z"/>
</g>
<g>
	<path class="st1" d="M48.2,23.1v-0.5c0.3-0.1,0.6-0.1,0.9-0.1v-5.5c-0.3,0-0.6-0.1-0.9-0.1v-0.5h2.7v0.5c-0.3,0.1-0.6,0.1-0.9,0.1
		v5.5c0.3,0,0.6,0.1,0.9,0.1v0.5H48.2z"/>
	<path class="st1" d="M58.4,16.9v6.2h-1.2l-2.7-4.3c-0.3-0.5-0.6-1-0.8-1.4c0.1,1.2,0.1,3,0.1,5c0.3,0,0.6,0.1,0.8,0.1v0.6H52v-0.5
		c0.3-0.1,0.6-0.1,0.9-0.2v-5.5c-0.3,0-0.6-0.1-0.9-0.1v-0.5h2.1l2.6,4.2c0.3,0.5,0.5,0.9,0.8,1.4c-0.1-1.2-0.1-3-0.1-5
		c-0.3,0-0.6-0.1-0.8-0.1v-0.6h2.4v0.6C58.9,16.8,58.6,16.9,58.4,16.9z"/>
</g>
<g>
	<path class="st1" d="M65.8,20.3v2.5c-0.7,0.3-1.5,0.4-2.3,0.4c-2.1,0-3.4-1.3-3.4-3.4c0-2.1,1.4-3.7,3.7-3.7c0.6,0,1.2,0.1,1.9,0.2
		V18H65c-0.1-0.3-0.1-0.6-0.1-0.9c-0.4-0.1-0.8-0.2-1.1-0.2c-1.4,0-2.6,0.9-2.6,2.8c0,1.7,1,2.7,2.6,2.7c0.5,0,0.8-0.1,1.2-0.2v-1.9
		c-0.3,0-0.6-0.1-0.9-0.1v-0.6h2.5v0.6C66.3,20.2,66,20.2,65.8,20.3z"/>
	<path class="st1" d="M67.4,23.1v-0.5c0.3-0.1,0.6-0.1,0.9-0.1v-5.5c-0.3,0-0.6-0.1-0.9-0.1v-0.5h4.5v1.6h-0.7
		c-0.1-0.3-0.1-0.6-0.1-0.9h-1.8v2.3h1.5c0-0.3,0.1-0.5,0.1-0.7h0.6v2.1h-0.6c-0.1-0.2-0.1-0.5-0.1-0.7h-1.5v2.5H71
		c0-0.3,0.1-0.6,0.1-0.9h0.7v1.6H67.4z M69.7,15.7l-0.4-0.5l1.4-1.1l0.5,0.6L69.7,15.7z"/>
</g>
<g>
	<path class="st1" d="M79.5,16.9v6.2h-1.2l-2.7-4.3c-0.3-0.5-0.6-1-0.8-1.4c0.1,1.2,0.1,3,0.1,5c0.3,0,0.6,0.1,0.8,0.1v0.6h-2.6
		v-0.5c0.3-0.1,0.6-0.1,0.9-0.2v-5.5c-0.3,0-0.6-0.1-0.9-0.1v-0.5h2.1l2.6,4.2c0.3,0.5,0.5,0.9,0.8,1.4c-0.1-1.2-0.1-3-0.1-5
		c-0.3,0-0.6-0.1-0.8-0.1v-0.6h2.4v0.6C80,16.8,79.7,16.9,79.5,16.9z"/>
	<path class="st1" d="M81.2,23.1v-0.5c0.3-0.1,0.6-0.1,0.9-0.1v-5.5c-0.3,0-0.6-0.1-0.9-0.1v-0.5h2.7v0.5c-0.3,0.1-0.6,0.1-0.9,0.1
		v5.5c0.3,0,0.6,0.1,0.9,0.1v0.5H81.2z"/>
</g>
<g>
	<path class="st1" d="M85,23.1v-0.5c0.3-0.1,0.6-0.1,0.9-0.1v-5.5c-0.3,0-0.6-0.1-0.9-0.1v-0.5h4.5v1.6h-0.7
		c-0.1-0.3-0.1-0.6-0.1-0.9h-1.8v2.3h1.5c0-0.3,0.1-0.5,0.1-0.7H89v2.1h-0.6c-0.1-0.2-0.1-0.5-0.1-0.7h-1.5v2.5h1.9
		c0-0.3,0.1-0.6,0.1-0.9h0.7v1.6H85z"/>
	<path class="st1" d="M94.7,23.1l-2-3.1h-0.2v2.4c0.3,0,0.5,0.1,0.8,0.1v0.6h-2.6v-0.5c0.3-0.1,0.6-0.1,0.9-0.1v-5.5
		c-0.3,0-0.6-0.1-0.9-0.1v-0.5h0.8c0.3,0,1,0,1.8,0c1.4,0,2.3,0.5,2.3,1.8c0,1.1-0.8,1.8-2,1.9c0.2,0.2,0.3,0.4,0.4,0.6l1.3,1.9
		c0.2,0,0.5,0.1,0.8,0.1v0.6H94.7z M93.2,16.9c-0.2,0-0.4,0-0.6,0v2.3c0.1,0,0.3,0,0.6,0c1,0,1.6-0.5,1.6-1.2
		C94.7,17.2,94.1,16.9,93.2,16.9z"/>
	<path class="st1" d="M97,23.1v-0.5c0.3-0.1,0.6-0.1,0.9-0.1v-5.5c-0.3,0-0.6-0.1-0.9-0.1v-0.5h2.7v0.5c-0.3,0.1-0.6,0.1-0.9,0.1
		v5.5c0.3,0,0.6,0.1,0.9,0.1v0.5H97z"/>
</g>
<g>
	<path class="st1" d="M100.8,23.1v-0.5c0.3-0.1,0.6-0.1,0.9-0.1v-5.5c-0.3,0-0.6-0.1-0.9-0.1v-0.5h4.5v1.6h-0.7
		c-0.1-0.3-0.1-0.6-0.1-0.9h-1.8v2.3h1.5c0-0.3,0.1-0.5,0.1-0.7h0.6v2.1h-0.6c-0.1-0.2-0.1-0.5-0.1-0.7h-1.5v2.5h1.9
		c0-0.3,0.1-0.6,0.1-0.9h0.7v1.6H100.8z"/>
	<path class="st1" d="M109,23.1v-0.5c0.3-0.1,0.6-0.1,0.9-0.1v-5.5c-0.3,0-0.6-0.1-0.9-0.1v-0.5h4.5v1.6h-0.7
		c-0.1-0.3-0.1-0.6-0.1-0.9h-1.8v2.3h1.5c0-0.3,0.1-0.5,0.1-0.7h0.6v2.1h-0.6c-0.1-0.2-0.1-0.5-0.1-0.7h-1.5v2.5h1.9
		c0-0.3,0.1-0.6,0.1-0.9h0.7v1.6H109z"/>
	<path class="st1" d="M120,17.9h-0.6c-0.1-0.4-0.1-0.7-0.1-0.9h-1.4v5.4c0.3,0,0.6,0.1,0.9,0.1v0.5H116v-0.5
		c0.3-0.1,0.6-0.1,0.9-0.1V17h-1.4c0,0.3-0.1,0.6-0.1,0.9h-0.6v-1.7h5.3V17.9z"/>
	<path class="st1" d="M125.9,23.1c-0.7,0-1.4,0-1.7,0h-0.9v-0.5c0.3-0.1,0.6-0.1,0.9-0.1v-5.5c-0.3,0-0.6-0.1-0.9-0.1v-0.5h0.9
		c0.5,0,1.3,0,2.1,0c2.2,0,3.5,1,3.5,3.4C129.8,21.9,128.2,23.1,125.9,23.1z M126.2,16.9c-0.4,0-0.8,0-1,0v5.3
		c0.3,0,0.6,0.1,0.9,0.1c1.6,0,2.7-0.8,2.7-2.7C128.8,17.9,128,16.9,126.2,16.9z"/>
	<path class="st1" d="M130.9,23.1v-0.5c0.3-0.1,0.6-0.1,0.9-0.1v-5.5c-0.3,0-0.6-0.1-0.9-0.1v-0.5h4.5v1.6h-0.7
		c-0.1-0.3-0.1-0.6-0.1-0.9h-1.8v2.3h1.5c0-0.3,0.1-0.5,0.1-0.7h0.6v2.1h-0.6c-0.1-0.2-0.1-0.5-0.1-0.7h-1.5v2.5h1.9
		c0-0.3,0.1-0.6,0.1-0.9h0.7v1.6H130.9z"/>
	<path class="st1" d="M145,20.3v2.5c-0.7,0.3-1.5,0.4-2.3,0.4c-2.1,0-3.4-1.3-3.4-3.4c0-2.1,1.4-3.7,3.7-3.7c0.6,0,1.2,0.1,1.9,0.2
		V18h-0.7c-0.1-0.3-0.1-0.6-0.1-0.9c-0.4-0.1-0.8-0.2-1.1-0.2c-1.4,0-2.6,0.9-2.6,2.8c0,1.7,1,2.7,2.6,2.7c0.5,0,0.8-0.1,1.2-0.2
		v-1.9c-0.3,0-0.6-0.1-0.9-0.1v-0.6h2.5v0.6C145.4,20.2,145.2,20.2,145,20.3z"/>
	<path class="st1" d="M146.5,23.1v-0.5c0.3-0.1,0.6-0.1,0.9-0.1v-5.5c-0.3,0-0.6-0.1-0.9-0.1v-0.5h4.5v1.6h-0.7
		c-0.1-0.3-0.1-0.6-0.1-0.9h-1.8v2.3h1.5c0-0.3,0.1-0.5,0.1-0.7h0.6v2.1h-0.6c-0.1-0.2-0.1-0.5-0.1-0.7h-1.5v2.5h1.9
		c0-0.3,0.1-0.6,0.1-0.9h0.7v1.6H146.5z"/>
	<path class="st1" d="M154,23.2c-0.5,0-1-0.1-1.5-0.2v-1.6h0.7c0.1,0.3,0.1,0.6,0.1,0.9c0.2,0.1,0.5,0.1,0.7,0.1
		c0.8,0,1.5-0.3,1.5-1.2c0-1.6-3.1-0.9-3.1-3.1c0-1.1,0.9-1.9,2.4-1.9c0.5,0,0.9,0.1,1.3,0.1v1.6h-0.7c-0.1-0.3-0.1-0.6-0.1-0.9
		c-0.1,0-0.4-0.1-0.6-0.1c-0.9,0-1.4,0.4-1.4,1.1c0,1.5,3.1,0.9,3.1,3.1C156.6,22.3,155.6,23.2,154,23.2z"/>
</g>
<g>
	<path class="st1" d="M162.8,17.9h-0.6c-0.1-0.4-0.1-0.7-0.1-0.9h-1.4v5.4c0.3,0,0.6,0.1,0.9,0.1v0.5h-2.7v-0.5
		c0.3-0.1,0.6-0.1,0.9-0.1V17h-1.4c0,0.3-0.1,0.6-0.1,0.9h-0.6v-1.7h5.3V17.9z"/>
	<path class="st1" d="M163.6,23.1v-0.5c0.3-0.1,0.6-0.1,0.9-0.1v-5.5c-0.3,0-0.6-0.1-0.9-0.1v-0.5h2.7v0.5c-0.3,0.1-0.6,0.1-0.9,0.1
		v5.5c0.3,0,0.6,0.1,0.9,0.1v0.5H163.6z"/>
	<path class="st1" d="M170.4,23.2c-2.1,0-3.1-1.4-3.1-3.5c0-2.3,1.5-3.6,3.3-3.6c1.9,0,3.1,1.2,3.1,3.5
		C173.7,21.9,172.2,23.2,170.4,23.2z M170.5,16.9c-1.1,0-2.2,0.9-2.2,2.7c0,1.6,0.7,2.8,2.2,2.8c1.1,0,2.2-0.9,2.2-2.7
		C172.7,17.9,171.9,16.9,170.5,16.9z"/>
	<path class="st1" d="M181.1,16.9v6.2h-1.2l-2.7-4.3c-0.3-0.5-0.6-1-0.8-1.4c0.1,1.2,0.1,3,0.1,5c0.3,0,0.6,0.1,0.8,0.1v0.6h-2.6
		v-0.5c0.3-0.1,0.6-0.1,0.9-0.2v-5.5c-0.3,0-0.6-0.1-0.9-0.1v-0.5h2.1l2.6,4.2c0.3,0.5,0.5,0.9,0.8,1.4c-0.1-1.2-0.1-3-0.1-5
		c-0.3,0-0.6-0.1-0.8-0.1v-0.6h2.4v0.6C181.6,16.8,181.3,16.9,181.1,16.9z"/>
</g>
<g>
	<path class="st1" d="M40.1,34.5c-0.7,0-1.4,0-1.7,0h-0.9v-0.5c0.3-0.1,0.6-0.1,0.9-0.1v-5.5c-0.3,0-0.6-0.1-0.9-0.1v-0.5h0.9
		c0.5,0,1.3,0,2.1,0c2.2,0,3.5,1,3.5,3.4C43.9,33.3,42.3,34.5,40.1,34.5z M40.3,28.3c-0.4,0-0.8,0-1,0v5.3c0.3,0,0.6,0.1,0.9,0.1
		c1.6,0,2.7-0.8,2.7-2.7C42.9,29.3,42.1,28.3,40.3,28.3z"/>
	<path class="st1" d="M51,28.3v3.6c0,1.8-0.9,2.7-2.7,2.7c-2.2,0-2.6-1.2-2.6-2.4v-3.9c-0.2,0-0.5-0.1-0.7-0.1v-0.6h2.5v0.6
		c-0.2,0.1-0.5,0.1-0.8,0.1v3.8c0,0.9,0.3,1.7,1.7,1.7c1.2,0,1.8-0.5,1.8-1.9v-3.6c-0.3,0-0.6-0.1-0.8-0.1v-0.6h2.4v0.6
		C51.5,28.2,51.2,28.2,51,28.3z"/>
	<path class="st1" d="M59.6,29.4c-0.1-0.3-0.1-0.6-0.1-0.9c-0.4-0.1-0.7-0.1-1-0.1c-1.5,0-2.2,1.2-2.2,2.7c0,1.7,0.7,2.7,2.4,2.7
		c0.5,0,1.2-0.1,1.6-0.4l0.1,0.9c-0.6,0.2-1.2,0.3-1.9,0.3c-2.1,0-3.2-1.2-3.2-3.4c0-2.1,1-3.7,3.4-3.7c0.5,0,1.1,0.1,1.6,0.2v1.7
		H59.6z"/>
</g>
<g>
	<path class="st1" d="M65.4,34.5v-0.5c0.2-0.1,0.5-0.1,0.8-0.1l-0.4-1.1H63l-0.4,1.1c0.3,0,0.6,0.1,0.8,0.1v0.5H61v-0.6
		c0.2,0,0.4-0.1,0.6-0.1l2.3-6.2H65l2.3,6.2c0.2,0,0.4,0.1,0.6,0.1v0.6H65.4z M64.7,29.5c-0.1-0.3-0.2-0.7-0.3-1h0
		c-0.1,0.3-0.2,0.7-0.3,1l-0.9,2.4h2.4L64.7,29.5z"/>
	<path class="st1" d="M75,28.3v6.2h-1.2l-2.7-4.3c-0.3-0.5-0.6-1-0.8-1.4c0.1,1.2,0.1,3,0.1,5c0.3,0,0.6,0.1,0.8,0.1v0.6h-2.6v-0.5
		c0.3-0.1,0.6-0.1,0.9-0.2v-5.5c-0.3,0-0.6-0.1-0.9-0.1v-0.5h2.1l2.6,4.2c0.3,0.5,0.5,0.9,0.8,1.4c-0.1-1.2-0.1-3-0.1-5
		c-0.3,0-0.6-0.1-0.8-0.1v-0.6h2.4v0.6C75.5,28.2,75.2,28.2,75,28.3z"/>
	<path class="st1" d="M81.8,29.3h-0.6c-0.1-0.4-0.1-0.7-0.1-0.9h-1.4v5.4c0.3,0,0.6,0.1,0.9,0.1v0.5h-2.7v-0.5
		c0.3-0.1,0.6-0.1,0.9-0.1v-5.4h-1.4c0,0.3-0.1,0.6-0.1,0.9h-0.6v-1.7h5.3V29.3z"/>
</g>
<g>
	<path class="st1" d="M85.5,34.6c-2.1,0-3.1-1.4-3.1-3.5c0-2.3,1.5-3.6,3.3-3.6c1.9,0,3.1,1.2,3.1,3.5
		C88.8,33.2,87.3,34.6,85.5,34.6z M85.6,28.3c-1.1,0-2.2,0.9-2.2,2.7c0,1.6,0.7,2.8,2.2,2.8c1.1,0,2.2-0.9,2.2-2.7
		C87.8,29.3,87,28.3,85.6,28.3z"/>
	<path class="st1" d="M96.2,28.3v6.2H95l-2.7-4.3c-0.3-0.5-0.6-1-0.8-1.4c0.1,1.2,0.1,3,0.1,5c0.3,0,0.6,0.1,0.8,0.1v0.6h-2.6v-0.5
		c0.3-0.1,0.6-0.1,0.9-0.2v-5.5c-0.3,0-0.6-0.1-0.9-0.1v-0.5h2.1l2.6,4.2c0.3,0.5,0.5,0.9,0.8,1.4c-0.1-1.2-0.1-3-0.1-5
		c-0.3,0-0.6-0.1-0.8-0.1v-0.6h2.4v0.6C96.7,28.2,96.4,28.2,96.2,28.3z"/>
	<path class="st1" d="M102.9,34.5c-0.7,0-1.4,0-1.7,0h-0.9v-0.5c0.3-0.1,0.6-0.1,0.9-0.1v-5.5c-0.3,0-0.6-0.1-0.9-0.1v-0.5h0.9
		c0.5,0,1.3,0,2.1,0c2.2,0,3.5,1,3.5,3.4C106.8,33.3,105.2,34.5,102.9,34.5z M103.2,28.3c-0.4,0-0.8,0-1,0v5.3
		c0.3,0,0.6,0.1,0.9,0.1c1.6,0,2.7-0.8,2.7-2.7C105.8,29.3,104.9,28.3,103.2,28.3z"/>
	<path class="st1" d="M107.8,34.5v-0.5c0.3-0.1,0.6-0.1,0.9-0.1v-5.5c-0.3,0-0.6-0.1-0.9-0.1v-0.5h4.5v1.6h-0.7
		c-0.1-0.3-0.1-0.6-0.1-0.9h-1.8v2.3h1.5c0-0.3,0.1-0.5,0.1-0.7h0.6V32h-0.6c-0.1-0.2-0.1-0.5-0.1-0.7h-1.5v2.5h1.9
		c0-0.3,0.1-0.6,0.1-0.9h0.7v1.6H107.8z"/>
	<path class="st1" d="M118.8,32c0.1,0.4,0.3,0.9,0.5,1.4h0c0.1-0.5,0.3-0.9,0.5-1.5l1.3-3.7c-0.3,0-0.6-0.1-0.8-0.1v-0.5h2.4v0.6
		c-0.2,0.1-0.4,0.1-0.6,0.1l-2.3,6.2h-1.1l-2.2-6.2c-0.2,0-0.4-0.1-0.6-0.1v-0.6h2.5v0.5c-0.2,0.1-0.5,0.1-0.8,0.1L118.8,32z"/>
</g>
<g>
	<path class="st1" d="M126.4,34.5v-0.5c0.2-0.1,0.5-0.1,0.8-0.1l-0.4-1.1H124l-0.4,1.1c0.3,0,0.6,0.1,0.8,0.1v0.5H122v-0.6
		c0.2,0,0.4-0.1,0.6-0.1l2.3-6.2h1.1l2.3,6.2c0.2,0,0.4,0.1,0.6,0.1v0.6H126.4z M125.7,29.5c-0.1-0.3-0.2-0.7-0.3-1h0
		c-0.1,0.3-0.2,0.7-0.3,1l-0.9,2.4h2.4L125.7,29.5z"/>
	<path class="st1" d="M135.1,28.3v3.6c0,1.8-0.9,2.7-2.7,2.7c-2.2,0-2.6-1.2-2.6-2.4v-3.9c-0.2,0-0.5-0.1-0.7-0.1v-0.6h2.5v0.6
		c-0.2,0.1-0.5,0.1-0.8,0.1v3.8c0,0.9,0.3,1.7,1.7,1.7c1.2,0,1.8-0.5,1.8-1.9v-3.6c-0.3,0-0.6-0.1-0.8-0.1v-0.6h2.4v0.6
		C135.5,28.2,135.3,28.2,135.1,28.3z"/>
</g>
<g>
	<path class="st1" d="M139.4,34.5c-0.7,0-1.4,0-1.7,0h-0.9v-0.5c0.3-0.1,0.6-0.1,0.9-0.1v-5.5c-0.3,0-0.6-0.1-0.9-0.1v-0.5h0.9
		c0.5,0,1.3,0,2.1,0c2.2,0,3.5,1,3.5,3.4C143.2,33.3,141.6,34.5,139.4,34.5z M139.6,28.3c-0.4,0-0.8,0-1,0v5.3
		c0.3,0,0.6,0.1,0.9,0.1c1.6,0,2.7-0.8,2.7-2.7C142.2,29.3,141.4,28.3,139.6,28.3z"/>
</g>
<g>
	<path class="st1" d="M45.2,47l-1.4,4.4h-1.1l-1-3c-0.1-0.3-0.2-0.7-0.3-1h0c-0.1,0.4-0.2,0.8-0.4,1.3l-0.8,2.7h-1.1L37.9,47
		c-0.2,0-0.4-0.1-0.7-0.1v-0.6h2.3v0.6C39.3,47,39.1,47,38.8,47l0.6,2.3c0.1,0.4,0.2,0.8,0.3,1.2h0c0.1-0.4,0.2-0.8,0.3-1.2l0.9-2.8
		H42l0.9,2.8c0.2,0.6,0.3,0.9,0.4,1.2h0c0.1-0.4,0.2-0.7,0.3-1.1l0.7-2.3c-0.2,0-0.5-0.1-0.7-0.1v-0.6h2.3v0.6
		C45.6,46.9,45.4,47,45.2,47z"/>
	<path class="st1" d="M54.1,47l-1.4,4.4h-1.1l-1-3c-0.1-0.3-0.2-0.7-0.3-1h0c-0.1,0.4-0.2,0.8-0.4,1.3l-0.8,2.7h-1.1L46.8,47
		c-0.2,0-0.4-0.1-0.7-0.1v-0.6h2.3v0.6C48.3,47,48,47,47.8,47l0.6,2.3c0.1,0.4,0.2,0.8,0.3,1.2h0c0.1-0.4,0.2-0.8,0.3-1.2l0.9-2.8
		h0.9l0.9,2.8c0.2,0.6,0.3,0.9,0.4,1.2h0c0.1-0.4,0.2-0.7,0.3-1.1l0.7-2.3c-0.2,0-0.5-0.1-0.7-0.1v-0.6h2.3v0.6
		C54.6,46.9,54.3,47,54.1,47z"/>
	<path class="st1" d="M63.1,47l-1.4,4.4h-1.1l-1-3c-0.1-0.3-0.2-0.7-0.3-1h0c-0.1,0.4-0.2,0.8-0.4,1.3l-0.8,2.7H57L55.7,47
		c-0.2,0-0.4-0.1-0.7-0.1v-0.6h2.3v0.6C57.2,47,57,47,56.7,47l0.6,2.3c0.1,0.4,0.2,0.8,0.3,1.2h0c0.1-0.4,0.2-0.8,0.3-1.2l0.9-2.8
		h0.9l0.9,2.8c0.2,0.6,0.3,0.9,0.4,1.2h0c0.1-0.4,0.2-0.7,0.3-1.1l0.7-2.3c-0.2,0-0.5-0.1-0.7-0.1v-0.6h2.3v0.6
		C63.5,46.9,63.3,47,63.1,47z"/>
</g>
<g>
	<path class="st1" d="M65.2,50.9c0,0.3-0.3,0.6-0.6,0.6s-0.6-0.3-0.6-0.6c0-0.3,0.3-0.6,0.6-0.6S65.2,50.5,65.2,50.9z"/>
	<path class="st1" d="M70.2,51.4v-3.3c0-0.7-0.2-1.1-0.9-1.1c-0.8,0-1.4,0.8-1.4,2v1.8c0.3,0,0.6,0.1,0.8,0.1v0.6h-2.6v-0.5
		c0.3-0.1,0.6-0.1,0.9-0.1v-6.1c-0.2,0-0.6-0.1-0.9-0.1V44c0.5-0.1,1.2-0.1,1.8-0.1v2.4c0,0.3,0,0.7-0.1,1l0,0
		c0.3-0.7,0.9-1.1,1.8-1.1c1.2,0,1.5,0.7,1.5,1.6v2.9c0.3,0,0.6,0.1,0.9,0.1v0.5H70.2z"/>
	<path class="st1" d="M77.1,48.8h-3.3c0,1.4,0.5,1.9,1.6,1.9c0.5,0,1.1-0.1,1.5-0.3l0.1,0.7c-0.5,0.2-1.1,0.3-1.7,0.3
		c-1.6,0-2.4-0.8-2.4-2.6c0-1.5,0.8-2.7,2.3-2.7c1.4,0,2,1,2,2.1C77.1,48.5,77.1,48.6,77.1,48.8z M75,46.9c-0.7,0-1.1,0.5-1.2,1.2
		h2.4C76.2,47.4,75.8,46.9,75,46.9z"/>
	<path class="st1" d="M78.1,51.4v-0.5c0.3-0.1,0.6-0.1,0.9-0.1v-3.7c-0.2,0-0.6-0.1-0.9-0.1v-0.5c0.5-0.1,1.2-0.1,1.8-0.1v4.4
		c0.3,0,0.6,0.1,0.9,0.1v0.5H78.1z M79.4,45.5c-0.3,0-0.6-0.3-0.6-0.6c0-0.3,0.3-0.6,0.6-0.6c0.3,0,0.6,0.3,0.6,0.6
		C80,45.2,79.8,45.5,79.4,45.5z"/>
	<path class="st1" d="M83.7,54.1c-1.3,0-2.1-0.5-2.1-1.5c0-0.6,0.4-1.1,0.8-1.3c-0.3-0.1-0.5-0.4-0.5-0.7c0-0.4,0.2-0.7,0.6-0.9
		c-0.5-0.3-0.7-0.8-0.7-1.4c0-1.1,0.8-2,2.2-2c0.3,0,0.5,0,0.8,0.1h1.7v0.7h-0.9c0.3,0.2,0.4,0.6,0.4,1c0,1.1-0.7,1.9-2.2,1.9
		c-0.2,0-0.5,0-0.6-0.1c-0.2,0.1-0.3,0.3-0.3,0.4c0,0.3,0.3,0.4,0.9,0.4h0.9c1.1,0,1.7,0.5,1.7,1.4C86.4,53.2,85.3,54.1,83.7,54.1z
		 M84.4,51.5h-1c-0.1,0-0.2,0-0.3,0c-0.4,0.2-0.6,0.5-0.6,0.9c0,0.6,0.6,0.9,1.4,0.9c1,0,1.6-0.4,1.6-1.1
		C85.5,51.8,85.1,51.5,84.4,51.5z M83.9,46.9c-0.8,0-1.3,0.5-1.3,1.2c0,0.8,0.5,1.2,1.3,1.2c0.8,0,1.3-0.4,1.3-1.2
		C85.1,47.4,84.7,46.9,83.9,46.9z"/>
	<path class="st1" d="M87.5,49.2v-0.7h2.4v0.7H87.5z"/>
	<path class="st1" d="M95.6,47L94,51.4h-1.1L91.3,47c-0.2,0-0.4-0.1-0.7-0.1v-0.6H93v0.6C92.8,47,92.5,47,92.3,47l0.8,2.5
		c0.1,0.3,0.2,0.6,0.3,1h0c0.1-0.3,0.2-0.7,0.3-1l0.9-2.5c-0.3,0-0.5-0.1-0.7-0.1v-0.6h2.3v0.6C96,46.9,95.8,47,95.6,47z"/>
</g>
<g>
	<path class="st1" d="M100.2,51.4c0-0.3,0-0.7,0.1-1l0,0c-0.3,0.7-0.9,1.1-1.7,1.1c-1.2,0-1.9-0.9-1.9-2.4c0-1.8,1-2.8,2.6-2.8
		c0.3,0,0.6,0,0.9,0.1v-1.6c-0.2,0-0.6-0.1-0.9-0.1V44c0.5-0.1,1.2-0.1,1.8-0.1v6.7c0.2,0,0.6,0.1,0.9,0.1v0.5
		C101.4,51.4,100.7,51.4,100.2,51.4z M100.1,47.1C99.8,47,99.5,47,99.2,47c-1,0-1.6,0.6-1.6,2c0,1.1,0.4,1.7,1.1,1.7
		c0.9,0,1.4-1.1,1.4-2V47.1z"/>
	<path class="st1" d="M104.1,50.9c0,0.3-0.3,0.6-0.6,0.6c-0.3,0-0.6-0.3-0.6-0.6c0-0.3,0.3-0.6,0.6-0.6
		C103.8,50.2,104.1,50.5,104.1,50.9z"/>
	<path class="st1" d="M107.5,51.5c-1.3,0-2.3-0.6-2.3-2.4c0-1.6,0.8-2.8,2.6-2.8c0.4,0,0.9,0.1,1.2,0.2v1.5h-0.6
		c-0.1-0.3-0.1-0.6-0.1-0.8c-0.2-0.1-0.4-0.1-0.6-0.1c-0.9,0-1.5,0.7-1.5,1.9c0,1,0.3,1.8,1.5,1.8c0.4,0,0.9-0.1,1.2-0.3l0.1,0.8
		C108.7,51.4,108.2,51.5,107.5,51.5z"/>
	<path class="st1" d="M113.9,51.4v-3.3c0-0.7-0.2-1.1-0.9-1.1c-0.8,0-1.4,0.8-1.4,2v1.8c0.3,0,0.6,0.1,0.8,0.1v0.6h-2.6v-0.5
		c0.3-0.1,0.6-0.1,0.9-0.1v-6.1c-0.2,0-0.6-0.1-0.9-0.1V44c0.5-0.1,1.2-0.1,1.8-0.1v2.4c0,0.3,0,0.7-0.1,1l0,0
		c0.3-0.7,0.9-1.1,1.8-1.1c1.2,0,1.5,0.7,1.5,1.6v2.9c0.3,0,0.6,0.1,0.9,0.1v0.5H113.9z"/>
</g>
<rect class="st2" width="26.7" height="56.7"/>
<path class="st3" d="M20.4,45.9h-5.9c-1.3,0-2.7,0.2-2.7,2.2c0,0.8,0.2,1.2,0.5,1.5c0.6,0.7,1.5,0.8,2.2,0.8h5.9v1H8.1v-1h4.4
	C12,50.3,11,49.5,11,47.9c0-1.2,0.5-2.1,1.1-2.5c0.6-0.4,1.4-0.5,2.5-0.5h5.9V45.9L20.4,45.9z"/>
<path class="st3" d="M11.8,39.7c-0.1,2.7,3.2,2.7,3.5,2.7v-5.2C15.2,37.2,11.8,37.1,11.8,39.7L11.8,39.7z M16.1,42.4
	c0,0,0.2,0,0.3,0c0.9-0.1,3.2-0.3,3.2-3.2c0-1.8-1.3-2.7-1.3-2.7l1.2,0.1c0,0,1,0.9,1,2.6c0,3.9-3.3,4.2-4.7,4.2
	c-1.5,0-4.9-0.4-4.9-3.7c0-3.4,3.7-3.6,4.6-3.6c0.2,0,0.5,0,0.5,0V42.4L16.1,42.4z"/>
<polygon class="st3" points="16.5,23.7 15.6,23.7 15.6,19.8 16.5,19.8 16.5,23.7 "/>
<path class="st3" d="M14.6,5.8c-0.5,0-1.5,0.1-2.1,0.6c-0.4,0.3-0.7,0.9-0.7,1.7c0,1.7,1.8,2.6,4,2.6c2.1,0,4-0.8,4-2.6
	c0-1.6-1.3-2.3-2.4-2.3H14.6L14.6,5.8z M20.6,8.2c0,2.5-2.2,3.5-4.8,3.5c-2.6,0-4.7-1.4-4.7-3.6c0-1.6,0.9-2.3,1.3-2.4H8.1v-1
	c0,0,8.1,0,9.1,0C18.4,4.8,20.6,5.6,20.6,8.2L20.6,8.2z"/>
<path class="st3" d="M11.2,13.1c0,0,8,2.5,8.1,2.5c0.2,0.1,0.1,0.1,0,0.1c-0.1,0-8.1,2.5-8.1,2.5v1l8.6-2.7c0.5-0.2,0.7-0.5,0.7-0.8
	c0-0.4-0.2-0.6-0.7-0.9c0,0-8.6-2.7-8.6-2.7V13.1L11.2,13.1z"/>
<polygon class="st3" points="20.4,34.5 11.2,34.5 11.2,33.6 20.4,33.6 20.4,34.5 "/>
<polygon class="st3" points="9.7,34.5 8.7,34.5 8.7,33.6 9.7,33.6 9.7,34.5 "/>
<path class="st3" d="M22.8,28.3c0,1.7-0.7,2.7-1.7,2.7c-0.8,0-1.4-0.7-1.6-1.2c0,0,0-0.8,0-1.6c0-2,0.8-2.5,1.6-2.5
	C22.3,25.7,22.8,27,22.8,28.3L22.8,28.3z M14.2,30.6c-1.4,0-2.4-0.7-2.4-2.3c0-1.7,1.2-2.3,2.4-2.3c1.6,0,2.4,1,2.4,2.4
	C16.5,29.6,15.6,30.6,14.2,30.6L14.2,30.6z M18.7,28.2c0,0.9,0.2,2.7-0.7,2.7c-0.8,0-0.7-1.3-0.7-2.6c0-2-1.2-3.3-3.1-3.3
	c-1,0-1.8,0.4-2.4,1v-1.1H11v3.4h0c0,0,0,0,0,0.1c0,1.5,0.8,3.1,3.2,3.1c1.6,0,2.4-1.1,2.5-1.5c0,0.4,0.2,1.8,1.5,1.8
	c0.7,0,1.1-0.4,1.2-1.2c0.2,0.4,0.9,1.2,1.9,1.2c1.3,0,2.4-1.2,2.4-3.6c0-2-0.9-3.5-2.5-3.5C19.5,24.7,18.7,25.8,18.7,28.2
	L18.7,28.2z"/>
</svg>
