<?xml version="1.0" encoding="utf-8"?>
<!-- Generator: Adobe Illustrator 19.0.0, SVG Export Plug-In . SVG Version: 6.00 Build 0)  -->
<svg version="1.1" id="Calque_1" xmlns="http://www.w3.org/2000/svg" xmlns:xlink="http://www.w3.org/1999/xlink" x="0px" y="0px"
	 viewBox="0 0 1027.4 532.5" style="enable-background:new 0 0 1027.4 532.5;" xml:space="preserve">
<style type="text/css">
	.st0{fill:#1A1818;}
	.st1{fill:#00A2A8;}
	.st2{fill:#008082;}
	.st3{fill:#005B7C;}
	.st4{fill:#32DB72;}
	.st5{fill:#44E38F;}
	.st6{fill:#57EBBD;}
	.st7{fill:#3AD0B6;}
	.st8{fill:#22B4AF;}
</style>
<g>
	<g>
		<path class="st0" d="M605.2,172.6l10.3-45.4h12.2v77.3h-11.1l1.2-50.6l-8.3,36.6H601l-8.3-36.6l1.2,50.6h-11.1v-77.3H595
			L605.2,172.6z"/>
		<path class="st0" d="M641,204.4v-77.3h27.5v9.4h-16.4V160h14.5v9.4h-14.5v25.7h16.4v9.4H641z"/>
		<path class="st0" d="M679.3,204.4v-77.3h19.3c10.4,0,15.6,5,15.6,14.9v51.2c0,7.5-4.4,11.2-13.3,11.2H679.3z M690.4,195.1h8.3
			c2.9,0,4.4-1.1,4.4-3.4v-49.5c0-3.7-1.7-5.6-5-5.6h-7.7V195.1z"/>
		<path class="st0" d="M726.9,204.4v-77.3h11.1v77.3H726.9z"/>
		<path class="st0" d="M761.7,204.4h-11.1v-64c0-8.8,4.4-13.2,13.3-13.2h8.3c8.8,0,13.3,4.4,13.3,13.2v64h-11.1v-28.3h-12.7V204.4z
			 M774.4,166.7V141c0-3-1.6-4.5-4.8-4.5h-3c-3.2,0-4.8,1.5-4.8,4.5v25.7H774.4z"/>
		<path class="st0" d="M582.7,312.8v-77.3h27.5v9.4h-16.4v23.5h14.5v9.4h-14.5v25.7h16.4v9.4H582.7z"/>
		<path class="st0" d="M644,272.8v-37.3h11.1v77.3H644v-15.4l-11.9-35.2v50.6h-11.1v-77.3h11.1L644,272.8z"/>
		<path class="st0" d="M685.4,284.5v-9.4h16.8v37.7h-21.7c-8.5,0-12.8-4.3-12.8-13v-51c0-8.8,4.3-13.2,12.8-13.2h7.6
			c9.4,0,14.1,4.5,14.1,13.5v8.4h-11.1v-6.9c0-3.7-1.6-5.6-4.7-5.6h-2.8c-3.2,0-4.8,1.9-4.8,5.6v47.4c0,3.7,1.6,5.6,4.8,5.6h7.5
			v-18.9H685.4z"/>
		<path class="st0" d="M714.2,312.8v-77.3h11.1v77.3H714.2z"/>
		<path class="st0" d="M761.5,272.8v-37.3h11.1v77.3h-11.1v-15.4l-11.9-35.2v50.6h-11.1v-77.3h11.1L761.5,272.8z"/>
		<path class="st0" d="M785.8,312.8v-77.3h27.5v9.4h-16.4v23.5h14.5v9.4h-14.5v25.7h16.4v9.4H785.8z"/>
		<path class="st0" d="M824.1,312.8v-77.3h27.5v9.4h-16.4v23.5h14.5v9.4h-14.5v25.7h16.4v9.4H824.1z"/>
		<path class="st0" d="M862.5,235.5h21.7c8.5,0,12.7,4.4,12.7,13.2v19c0,6.7-2.2,11-6.6,12.8l7.7,32.2h-10.5l-7.3-31.2h-6.7v31.2
			h-11.1V235.5z M873.5,272.7h7.3c3.3,0,5-1.9,5-5.6v-16.7c0-3.7-1.7-5.6-5-5.6h-7.3V272.7z"/>
		<path class="st0" d="M909,312.8v-77.3H920v77.3H909z"/>
		<path class="st0" d="M956.3,272.8v-37.3h11.1v77.3h-11.1v-15.4l-11.9-35.2v50.6h-11.1v-77.3h11.1L956.3,272.8z"/>
		<path class="st0" d="M997.7,284.5v-9.4h16.8v37.7h-21.7c-8.5,0-12.8-4.3-12.8-13v-51c0-8.8,4.3-13.2,12.8-13.2h7.6
			c9.4,0,14.1,4.5,14.1,13.5v8.4h-11.1v-6.9c0-3.7-1.6-5.6-4.7-5.6H996c-3.2,0-4.8,1.9-4.8,5.6v47.4c0,3.7,1.6,5.6,4.8,5.6h7.5
			v-18.9H997.7z"/>
		<path class="st0" d="M582.7,421.1v-77.3h11.1v77.3H582.7z"/>
		<path class="st0" d="M630.1,381.2v-37.3h11.1v77.3h-11.1v-15.4l-11.9-35.2v50.6h-11.1v-77.3h11.1L630.1,381.2z"/>
		<path class="st0" d="M675.6,364.6v-6.8c0-3.1-1.6-4.6-4.8-4.6h-1.7c-3.2,0-4.7,1.5-4.7,4.6v12.8c0,1.4,0.3,2.4,0.9,2.9
			c0.6,0.5,1.6,1.1,3,1.9l10.5,5.3c2.3,1.2,3.9,2.2,4.9,2.9c1,0.7,1.7,1.5,2.3,2.5c0.5,1,0.8,2.8,0.8,5.5v16.5c0,8.7-4.5,13-13.4,13
			h-6.8c-8.8,0-13.3-4.7-13.3-14.2v-3.9h11.1v4.2c0,3,1.7,4.5,5,4.5h2c2.9,0,4.4-1.5,4.4-4.5v-13.1c0-1.4-0.3-2.4-0.9-2.9
			c-0.6-0.5-1.6-1.1-3-1.9l-10.5-5.5c-2.3-1.1-4-2.1-5-2.9c-1-0.8-1.8-1.8-2.3-3.1c-0.5-1.3-0.7-2.9-0.7-4.9v-15.8
			c0-8.8,4.4-13.2,13.3-13.2h6.9c8.8,0,13.3,4.4,13.3,13.2v7.5H675.6z"/>
		<path class="st0" d="M716.5,353.2v67.9h-11.1v-67.9h-10.6v-9.4h32.3v9.4H716.5z"/>
		<path class="st0" d="M736.3,421.1v-77.3h11.1v77.3H736.3z"/>
		<path class="st0" d="M778.3,353.2v67.9h-11.1v-67.9h-10.6v-9.4h32.3v9.4H778.3z"/>
		<path class="st0" d="M834.2,343.9v62.6c0,9.8-4.5,14.6-13.4,14.6h-9.3c-8.8,0-13.3-4.9-13.3-14.7v-62.5h11.1v62.8
			c0,3.4,1.6,5.1,4.8,5.1h4.5c3,0,4.5-1.7,4.5-5.1v-62.8H834.2z"/>
		<path class="st0" d="M865.1,353.2v67.9H854v-67.9h-10.6v-9.4h32.3v9.4H865.1z"/>
		<path class="st0" d="M885,421.1v-77.3h27.5v9.4H896v23.5h14.5v9.4H896v25.7h16.4v9.4H885z"/>
	</g>
	<g>
		<polygon class="st1" points="264.9,386.6 264.9,386.7 265,386.6 264.9,386.6 		"/>
		<polygon class="st1" points="143.4,265.1 143.4,265.1 143.4,265.2 143.5,265.1 		"/>
		<polygon class="st1" points="265,143.7 264.9,143.6 264.9,143.7 264.9,143.7 		"/>
		
			<rect x="386.4" y="265.1" transform="matrix(-0.6601 0.7512 -0.7512 -0.6601 840.6523 149.9037)" class="st1" width="0" height="0"/>
		<path class="st2" d="M143.4,265.1l-111.1-111c0,0,0,0,0,0L143.4,265.1L143.4,265.1z"/>
		<path class="st2" d="M264.9,143.6l-111-111c0,0,0,0,0,0L264.9,143.6L264.9,143.6z"/>
		
			<rect x="239.8" y="204.4" transform="matrix(-0.7071 -0.7071 0.7071 -0.7071 411.433 579.2241)" class="st3" width="171.8" height="0"/>
		<polygon class="st3" points="143.5,265.1 143.4,265.2 264.9,386.6 264.9,386.6 		"/>
		<path class="st2" d="M386.4,265.2l111,111.1c0,0,0,0,0,0L386.4,265.2L386.4,265.2z"/>
		<path class="st2" d="M264.9,386.7l111,111c0,0,0,0,0,0L264.9,386.7L264.9,386.7z"/>
		<path class="st2" d="M386.4,265.1L386.4,265.1l111.1-111c0,0,0,0,0,0L386.4,265.1z"/>
		<path class="st2" d="M265,143.7L376,32.6c0,0,0,0,0,0L265,143.7L265,143.7z"/>
		<path class="st4" d="M376,32.6c-70-33.5-152-33.5-222.1,0l111,111L376,32.6z"/>
		<path class="st5" d="M386.4,265.1l111-111c-12.3-25.7-29-49.8-50.3-71.1c-21.3-21.3-45.4-38-71.1-50.3L265,143.7L386.4,265.1z"/>
		<path class="st6" d="M497.5,376.2c33.5-70,33.5-152,0-222.1l-111,111L497.5,376.2z"/>
		<polygon class="st3" points="264.9,386.6 265,386.6 386.4,265.2 386.4,265.1 		"/>
		<polygon class="st3" points="264.9,143.7 264.9,143.7 143.4,265.1 143.5,265.1 		"/>
		<path class="st5" d="M264.9,143.7L153.9,32.6c-25.7,12.3-49.8,29-71.1,50.3c-21.3,21.3-38,45.4-50.3,71.1l111.1,111L264.9,143.7z"
			/>
		<polygon class="st6" points="264.9,386.6 386.4,265.1 264.9,143.7 143.5,265.1 		"/>
		<path class="st7" d="M265,386.6l111.1,111c25.7-12.3,49.8-29,71.1-50.3c21.3-21.3,38-45.4,50.3-71.1l-111-111.1L265,386.6z"/>
		<path class="st2" d="M143.4,265.1L32.4,376.2c0,0,0,0,0,0L143.4,265.1L143.4,265.1z"/>
		<path class="st2" d="M264.9,386.6l-111.1,111c0,0,0,0,0,0L264.9,386.6L264.9,386.6z"/>
		<path class="st6" d="M32.4,154.1c-33.4,70-33.4,152.1,0,222.1l111.1-111.1L32.4,154.1z"/>
		<path class="st7" d="M143.4,265.2L32.4,376.2c12.3,25.7,29,49.8,50.3,71.1c21.3,21.3,45.4,38,71.1,50.3l111.1-111L143.4,265.2z"/>
		<path class="st8" d="M153.9,497.7c70,33.4,152,33.4,222.1,0l-111-111L153.9,497.7z"/>
	</g>
	<g>
		<polygon points="71.2,168.8 71.2,362.7 119.6,362.7 119.6,241.5 168.1,290 204.4,253.7 119.6,168.8 		"/>
		<rect x="410.3" y="168.8" width="48.5" height="193.9"/>
		<polygon points="337.5,217.2 386.3,217.2 386.3,168.8 289.2,168.8 		"/>
		<polygon points="265.1,284.1 363,284.1 363,269.1 341.3,247.3 265.1,247.3 265.1,217.2 313.2,217.2 265,169 265,168.8 
			264.8,168.8 216.6,168.8 216.6,168.8 180.1,205.2 216.6,241.5 216.6,362.7 216.6,362.7 265,362.7 386.3,362.7 386.3,314.2 
			265.1,314.2 		"/>
	</g>
</g>
</svg>
