<?xml version="1.0" encoding="utf-8"?>
<!-- Generator: Adobe Illustrator 19.0.0, SVG Export Plug-In . SVG Version: 6.00 Build 0)  -->
<svg version="1.1" id="Calque_1" xmlns="http://www.w3.org/2000/svg" xmlns:xlink="http://www.w3.org/1999/xlink" x="0px" y="0px"
	 viewBox="0 0 825.7 271.9" style="enable-background:new 0 0 825.7 271.9;" xml:space="preserve">
<style type="text/css">
	.st0{fill-rule:evenodd;clip-rule:evenodd;fill:#FFFFFF;}
</style>
<g id="an7TZ0_2_">
	<g>
		<path class="st0" d="M9,136.9c83.4,0,166.9,0,250.3-0.1c4,0,4.8,1.2,4.8,4.9c-0.2,28.3-0.2,56.6,0,84.9c0,4.7-0.9,6.1-5.9,6
			c-81.1-0.2-162.2-0.1-243.3-0.1c-2,0-4,0.2-5.9,0.3c0-10.7,0-21.3,0-32c1.8-0.1,3.7-0.2,5.5-0.2c71,0,141.9,0,212.9,0.1
			c3.6,0,4.9-0.6,4.8-4.5c-0.4-7.6-0.3-15.3,0-23c0.1-3.3-0.5-4.5-4.2-4.5c-73,0.1-145.9,0.1-218.9,0.1C9,158.2,9,147.6,9,136.9z"/>
		<path class="st0" d="M769,6.9c0,21.2,0,42.5,0,64.8c3.9-4.3,7.3-8,10.7-11.7c2.8-3.1,6.1-5.8,8.3-9.3c6.1-9.9,15.1-11,25.9-8.9
			c-7.1,7.6-13.6,15.3-20.9,22.2c-4,3.8-3.8,6.4-0.7,10.6c7.5,10.2,14.4,20.7,21.6,31.1c0.8,1.2,1,3.1,3.1,3.2c0,0.7,0,1.3,0,2
			c-4.6-1-9.2-0.5-13.8-0.4c-3.1,0.1-4.8-1-6.4-3.5c-5.2-7.9-10.7-15.6-15.9-23.5c-2-3.2-3-2.4-5.7-0.4c-7.7,5.6-6.8,13.5-6.4,21.1
			c0.3,5-1,6.6-6.2,6.3c-9.5-0.5-9.5-0.1-9.5-9.9c-0.1-31.3-0.1-62.5-0.2-93.8C758.3,6.9,763.7,6.9,769,6.9z"/>
		<path class="st0" d="M9,125.9c83,0,165.9,0,248.9,0.1c1.3,0,2.7,0.1,4,0c2.3-0.1,2.2,1.5,2.2,3c0,1.5,0.2,3.1-2.2,2.9
			c-1.3-0.1-2.7,0-4,0c-83,0-165.9,0-248.9,0C9,129.9,9,127.9,9,125.9z"/>
		<path class="st0" d="M9,104.9c83.3,0,166.5,0,249.8,0c1,0,2,0.1,3,0c2.3-0.2,2.3,1.3,2.2,2.9c0,1.6,0,3.1-2.3,3
			c-1.3-0.1-2.7,0-4,0c-80.9,0-161.9,0-242.8,0c-2,0-4,0.1-6,0.2C9,108.9,9,106.9,9,104.9z"/>
		<path class="st0" d="M9,93.9c2,0.1,4,0.2,6,0.2c80.8,0,161.5,0,242.3,0c1.3,0,2.7,0.1,4,0c2.3-0.2,2.8,0.9,2.8,3
			c0,2.1-0.5,2.9-2.8,2.9c-6-0.1-12,0-18,0c-78.1,0-156.2,0-234.3,0C9,97.9,9,95.9,9,93.9z"/>
		<path class="st0" d="M9,72.9c83.3,0,166.6,0,249.9,0.1c1.7,0,4.2-1.1,4.8,1c0.6,1.9,1.7,5.4-2.9,4.9c-1.2-0.1-2.3,0-3.5,0
			c-82.8,0-165.6,0-248.4,0C9,76.9,9,74.9,9,72.9z"/>
		<path class="st0" d="M9,51.9c83.3,0,166.7,0,250,0.1c2,0,5.4-1.7,5.1,3c-0.1,1.8-0.6,2.8-2.6,2.7c-1.3-0.1-2.7,0-4,0
			c-80.8,0-161.7,0-242.5,0c-2,0-4,0.2-6,0.3C9,55.9,9,53.9,9,51.9z"/>
		<path class="st0" d="M9,40.9c27.3,0,54.6,0.1,81.9,0.1c55.6,0,111.3,0,166.9,0c1.3,0,2.7,0.1,4,0c2.3-0.1,2.2,1.4,2.2,3
			c0,1.6,0.1,3.1-2.2,2.9c-1-0.1-2,0-3,0c-83.3,0-166.5,0-249.8,0C9,44.9,9,42.9,9,40.9z"/>
		<path class="st0" d="M9,115.9c1.5-0.1,3-0.2,4.5-0.2c81.8,0,163.5,0,245.3,0c1.2,0,2.3,0,3.5,0c2.1,0,1.7,1.6,1.7,2.9
			c0.1,1.2,0,2.4-1.7,2.4c-0.7,0-1.3,0-2,0c-83.8,0-167.5,0-251.3-0.1C9,119.2,9,117.6,9,115.9z"/>
		<path class="st0" d="M9,83.9c83.6,0,167.2-0.1,250.9,0c1.7,0,4.1-1.1,4.2,2.4c0.1,3.7-2.2,3-4.3,3c-46.1,0-92.3,0-138.4,0
			c-35.6,0-71.3,0-106.9,0c-1.8,0-3.6-0.2-5.4-0.4C9,87.2,9,85.6,9,83.9z"/>
		<path class="st0" d="M9,62.9c1.6-0.1,3.3-0.4,4.9-0.4c81.6,0,163.2,0,244.8,0c1.2,0,2.3,0,3.5,0c2.1,0.1,1.7,1.7,1.7,2.9
			c0,1.2,0.1,2.4-1.7,2.4c-1.2,0-2.3,0-3.5,0c-83.3,0-166.6,0-249.8,0C9,66.2,9,64.6,9,62.9z"/>
		<path class="st0" d="M738,6.9c0,4.3-0.1,8.6,0,12.9c0.1,2.2-0.8,2.7-2.8,2.9c-13.5,1-13.5,1-13.7-12.3c0-1.1-0.3-2.2-0.4-3.4
			C726.7,6.9,732.3,6.9,738,6.9z"/>
		<path class="st0" d="M483.2,173.1c10.7-16.3,36.2-14.6,43.4,1.5c8.2-12.7,18.3-14.4,30.1-12c10.4,2.1,16.9,10.1,17.3,21.6
			c0.5,15.1,0.2,30.3,0.3,45.5c0,2.1-0.7,2.8-2.8,2.9c-12.4,0.9-12.4,1-12.4-11.3c0-9.7,0-19.3,0-29c0-2.2-0.1-4.3-0.5-6.5
			c-0.8-5.2-2.6-9.7-8.4-11.1c-6.5-1.5-11.9,0.1-16.1,5.2c-3.6,4.4-4.9,9.7-5,15.3c0,11-0.1,22,0.1,33c0.1,3.2-0.7,4.3-4.1,4.3
			c-11.3,0-11.2,0.1-11.3-11c-0.1-11.7,0.6-23.3-0.5-35c-0.5-5.7-2.6-10.3-8.7-11.9c-6.3-1.6-12.6,0.6-16.3,5.8
			c-2.8,4-4.3,8.6-4.3,13.6c0,11.3-0.2,22.7,0,34c0.1,3.5-1,4.5-4.5,4.4c-11.2-0.1-11.2,0.1-11.2-11.2c0-17.8,0.1-35.7-0.1-53.5
			c0-3.8,1-5.3,4.7-4.6c0.3,0.1,0.7,0,1,0C482.9,163.4,482.9,163.4,483.2,173.1z"/>
		<path class="st0" d="M483.5,51.2c8.8-15.8,36.1-15.2,43.1,1.9c6.5-12.1,17.1-14.8,29.3-12.8c10.8,1.8,17.7,10.5,18.1,22.6
			c0.4,14.8,0.1,29.7,0.3,44.5c0,2.3-0.7,3.1-3.1,3.2C559,111.1,559,111.2,559,99c0-9.7,0-19.3,0-29c0-2.2-0.2-4.3-0.5-6.5
			c-0.8-5-2.6-9.3-8.2-10.7c-6.3-1.7-11.6-0.1-15.8,4.6c-3.9,4.4-5.4,9.9-5.4,15.7c-0.1,11.2-0.1,22.3,0,33.5
			c0.1,3.1-0.8,3.9-3.9,3.9c-11.5,0.1-11.4,0.2-11.5-11.2c-0.1-11.7,0.7-23.3-0.5-34.9c-0.6-5.5-2.6-10-8.5-11.6
			c-6.1-1.6-12.2,0.3-16,5.3c-3.1,4.1-4.7,8.8-4.7,13.9c0,11.5-0.1,23,0,34.5c0,3-0.6,4-3.8,4.1c-11.9,0.2-11.9,0.3-11.9-11.5
			c0-17.7,0.1-35.3-0.1-53c-0.1-4.1,1.3-5,5.1-4.9C482.6,41.4,482.6,41.2,483.5,51.2z"/>
		<path class="st0" d="M359.5,173.8c0.7-10.6,0.7-10.4,10.5-10.5c3.7-0.1,4.3,1.3,4.3,4.6c-0.1,20.5-0.1,41-0.1,61.5
			c0,4.5-0.3,9-1.6,13.3c-4.2,14.1-14.5,20.4-28.4,21.9c-8.4,0.9-16.7,0-24.4-3.7c-6.9-3.3-11-8.8-12.5-16.4
			c-0.6-3.2,0.4-3.8,3.2-3.6c1.3,0.1,2.7,0.1,4,0c4-0.2,7.8-0.6,8.6,5c0.2,1.2,1.7,2.5,2.8,3.4c10.7,8.9,28.7,3.4,32.5-9.9
			c1.5-5.3,1.6-10.7,1.3-17.5c-6.1,9.5-14.1,12.4-23.7,12.2c-12.9-0.2-23-6.5-27.5-18.5c-5.3-14.1-4.7-28.1,3.9-41
			c7.5-11.3,22.8-15.8,35.4-11.1C352.7,165.3,356.2,168.7,359.5,173.8z M359,198.1c0-4.7-0.8-9.2-2.8-13.5
			c-3.1-6.7-8.5-10.2-15.7-10.4c-7.3-0.2-12.8,3.5-16,10c-4.3,9-4.6,18.3-0.5,27.5c3.8,8.4,12.3,12,21.1,9.4
			C353.9,218.4,359,210,359,198.1z"/>
		<path class="st0" d="M629.2,78.6c-7.3,0-14.6,0-22,0c-1.6,0-3.3-0.5-3.2,2.4c0.5,13.5,13.6,22.5,26.1,17.9c2.4-0.9,5.1-2,5.9-4.2
			c2.1-5.7,6.4-5.4,11.2-5.3c7.7,0.2,8.1,0.6,4.3,7.5c-4.6,8.5-12.1,13.2-21.4,14.7c-17.8,2.8-33.6-3.3-39.5-19.8
			c-6.8-19.1-0.4-40.1,15.2-48c11.8-5.9,23.9-5.9,35.2,1.1c11.3,7,13.7,18.4,13.8,30.7c0,3-1.6,3.1-3.8,3.1
			C643.9,78.5,636.5,78.6,629.2,78.6z M621.9,68c4.7,0,9.3-0.2,14,0.1c2.9,0.1,3.3-0.8,2.7-3.4c-2.1-8.7-7.1-12.8-15.9-12.8
			c-8.3,0-15.6,5.8-17.4,13.7c-0.5,2.2,0.3,2.6,2.2,2.5C612.3,67.9,617.1,68,621.9,68z"/>
		<path class="st0" d="M629.3,200.7c-7.3,0-14.7,0.1-22-0.1c-3.2-0.1-3.5,1-3,3.8c2.7,14,13.6,21,25.7,16.5c2.7-1,4.9-2.7,6.8-4.9
			c1.2-1.5,1-4.3,3.5-4.4c4.2-0.2,8.4-0.3,12.5,0.1c2.2,0.2,0.7,2.1,0.4,3.1c-4,11.8-13,17.2-24.6,19c-6.1,0.9-12.3,0.6-18.3-1.3
			c-14.9-4.6-23.1-18.3-22.1-36.6c1.3-24,20.6-38.6,43.7-33c15.2,3.7,25.7,20,23.1,35.6c-0.4,2.6-2,2.2-3.6,2.2
			C644,200.7,636.7,200.7,629.3,200.7z M621.5,190c4.8,0,9.7-0.1,14.5,0.1c3,0.1,3.2-0.9,2.6-3.5c-2.2-8.8-7.3-12.9-16.4-12.7
			c-8,0.1-15.1,6.1-16.9,13.8c-0.5,2.3,0.5,2.5,2.3,2.5C612.2,190,616.8,190,621.5,190z"/>
		<path class="st0" d="M436.2,224.1c-8.8,10.3-19.7,11.5-31.3,8.8c-9.2-2.1-13.9-8.2-14.5-17.3c-0.6-8.6,3.6-15.2,11.9-18.8
			c8.2-3.6,17.1-3.7,25.7-5.7c3.1-0.7,7.4-0.1,7.8-4.6c0.4-4.6-1.2-9-5.6-11.5c-6.4-3.5-19.7-2.7-22,8c-0.4,1.9-1.2,2.5-2.9,2.4
			c-1.8-0.1-3.7,0-5.5,0c-7.7,0-7.7,0-5.2-7.2c2.5-7.1,7.5-11.7,14.4-14.2c9.1-3.2,18.3-3.2,27.4-0.1c9,3.1,14.5,10.4,14.6,20
			c0.2,15.1,0,30.3,0.2,45.5c0,2.8-1.1,3.5-3.5,3.2c-0.8-0.1-1.7,0-2.5,0C437.1,232.6,437.1,232.6,436.2,224.1z M435.8,198.6
			c-4.3,2.2-8.9,2.8-13.4,3.6c-3.7,0.7-7.6,0.9-11.1,2.6c-3.7,1.8-5.5,4.6-5.4,8.7c0.1,3.7,1.7,6.3,5,7.9
			c9.2,4.3,21.4-1.3,24.1-11.1C436,206.5,436.1,202.7,435.8,198.6z"/>
		<path class="st0" d="M437.6,100.3c-6.8,11.3-16.7,13.1-27.5,11.2c-12.3-2.1-19.1-10.9-19.7-25.7c-0.6-13.8-0.2-27.6-0.2-41.5
			c0-0.5-0.2-1.2,0.1-1.5c4-3.6,8.7-0.9,13.1-1.6c2.9-0.4,2.5,2,2.5,3.7c0,11.2,0,22.3,0,33.5c0,2.5,0,5,0.2,7.5
			c0.6,7,4,11.5,9.7,13c7,1.8,13.3-0.4,17.1-6c3-4.4,4.2-9.3,4.2-14.6c0-11,0.1-22-0.1-33c-0.1-3.3,0.9-4.2,4.2-4.2
			c11.3,0,11.3-0.1,11.3,11c0,18-0.1,36,0.1,54c0,3.6-1,4.9-4.5,4.3c-0.2,0-0.3,0-0.5,0C438.2,110.5,438.2,110.5,437.6,100.3z"/>
		<path class="st0" d="M326.6,50.1c6.8-9.4,16.1-11.1,26.4-10.2c11.9,1.1,20.6,10.4,21,23.3c0.5,14.6,0.2,29.3,0.4,44
			c0,2.8-1,3.2-3.5,3.3c-11.8,0.4-11.8,0.4-11.8-11.4c0-9.8,0.1-19.7,0-29.5c-0.1-10.9-4.4-16.6-13.1-17.4
			c-8.4-0.8-15.8,5.2-17.9,14.7c-0.6,2.8-1,5.6-0.9,8.4c0.1,8.3,0.1,16.7,0,25c-0.1,3.3,1.5,8.4-0.7,9.4c-3.6,1.6-8.4,0.7-12.7,0.7
			c-2.1,0-1.7-1.6-1.7-2.9c0-21.2,0-42.3,0-63.5c0-0.5-0.2-1.2,0.1-1.5c3.8-3,8.2-0.7,12.3-1.3c2.6-0.4,2.3,1.7,2.3,3.4
			C326.6,46.5,326.6,48.3,326.6,50.1z"/>
		<path class="st0" d="M696.5,234c-6.3,0.2-12.8-0.8-18.9-4c-5.6-3-9-7.6-10.3-13.9c-0.6-2.7,0.2-3.7,2.9-3.4c1.5,0.1,3,0,4.5,0
			c3.6,0,7.6-1,8.5,4.6c0.4,2.2,2.9,3.6,5.1,4.4c6.2,2.2,12.4,2.2,18.6,0c3.9-1.4,6.2-4.5,5.9-8.9c-0.2-4.2-3.1-6.1-6.8-6.9
			c-6.8-1.5-13.7-2.5-20.5-4c-10.2-2.3-15.8-7.6-16.6-15.5c-1-10.2,3.7-18,13.6-21.9c10.5-4.1,21.1-3.9,31.6,0.2
			c6.4,2.6,10.6,7.2,11.8,14.3c0.4,2.6,0.1,4.2-3.1,3.8c-1.6-0.2-3.3-0.2-5,0c-3.5,0.3-6.3,0.1-7.1-4.4c-0.4-2.1-2.5-3.5-4.6-4.3
			c-5.6-2.2-11.4-2.2-17,0c-3.5,1.4-5.6,4-5.5,8.1c0.2,4.1,2.8,5.7,6.2,6.8c6.2,2,12.7,2.2,19,3.7c1.8,0.4,3.6,0.6,5.3,1.2
			c7.1,2.3,12.6,6.2,13.6,14.2c1,8.8-1.6,16.1-9.5,20.9C711.8,233.2,704.5,234.2,696.5,234z"/>
		<path class="st0" d="M684,50.8c5.3-9.1,12.5-12.1,21.6-10.9c5.5,0.7,6.3,2.1,4.8,7.4c-0.3,1.1-0.8,2.2-0.9,3.3
			c-0.4,4.6-2.2,5.3-6.6,3.7c-5.6-2-11.4,0.6-14.7,5.7c-3,4.6-4,9.8-4,15.2c-0.1,10.5-0.1,21,0,31.5c0,2.7-0.6,3.7-3.5,3.7
			c-11.8,0.2-11.8,0.3-11.8-11.5c0-17.7,0.1-35.3-0.1-53c-0.1-4.1,1.2-5.4,5-4.8c0.2,0,0.3,0,0.5,0C683,41.2,683,41.2,684,50.8z"/>
		<path class="st0" d="M737.3,75.7c0,10.3-0.1,20.6,0,31c0,2.6-0.5,3.8-3.5,3.8C722,110.8,722,111,722,99.2
			c0-17.8,0.1-35.6-0.1-53.4c0-3.2,0.4-4.7,4.2-4.6c11.2,0.1,11.2-0.1,11.2,11.1C737.3,60.1,737.3,67.9,737.3,75.7z"/>
	</g>
</g>
</svg>
