<?xml version="1.0" encoding="utf-8"?>
<!-- Generator: Adobe Illustrator 19.0.0, SVG Export Plug-In . SVG Version: 6.00 Build 0)  -->
<svg version="1.1" id="Calque_1" xmlns="http://www.w3.org/2000/svg" xmlns:xlink="http://www.w3.org/1999/xlink" x="0px" y="0px"
	 viewBox="0 0 595.3 205" style="enable-background:new 0 0 595.3 205;" xml:space="preserve">
<style type="text/css">
	.st0{fill:none;stroke:#FFFFFF;stroke-width:5;stroke-linecap:round;stroke-linejoin:round;stroke-miterlimit:10;}
	.st1{fill:none;stroke:#FFFFFF;stroke-width:4.6716;stroke-linecap:round;stroke-linejoin:round;stroke-miterlimit:10;}
	.st2{fill:#FFFFFF;}
</style>
<g id="XMLID_2_">
	<polyline id="XMLID_27_" class="st0" points="302.7,142.2 48.7,142.2 48.7,47.5 393.5,47.5 381.3,75.5 	"/>
	<polygon id="XMLID_26_" class="st0" points="292.3,165.7 546.4,165.7 546.4,74.3 333.5,76.6 	"/>
	<line id="XMLID_25_" class="st1" x1="307.4" y1="190.7" x2="383.2" y2="21.8"/>
	<g id="XMLID_11_">
		<path id="XMLID_23_" class="st2" d="M112.6,74.4v7.3H91.8v8.5h18.7v7.3H91.8v8.6h21.5v7.3H83V74.4H112.6z"/>
		<path id="XMLID_21_" class="st2" d="M141.5,81.8c-6.7,0-11.9,5.2-11.9,12c0,6.8,5.2,12,11.9,12c3.5,0,7.3-1.8,10.1-4.6l5.2,5.6
			c-4.1,4.2-10.1,7-15.7,7c-11.6,0-20.4-8.6-20.4-19.9c0-11.2,9-19.7,20.7-19.7c5.6,0,11.5,2.5,15.4,6.5l-5.1,6.2
			C149,83.8,145.1,81.8,141.5,81.8z"/>
		<path id="XMLID_19_" class="st2" d="M174.2,74.4v31.3h16.7v7.7h-25.5V74.4H174.2z"/>
		<path id="XMLID_17_" class="st2" d="M222.5,98.7l-6.1-15.1l-6.2,15.1l-2.9,7.1l-3.1,7.6h-9.1l16.9-38.9h9.1l16.6,38.9h-9.4
			l-3.1-7.6L222.5,98.7z"/>
		<path id="XMLID_15_" class="st2" d="M254,74.4v38.9h-8.8V74.4H254z"/>
		<path id="XMLID_12_" class="st2" d="M289.9,113.4l-6.2-11.1h-0.8h-8.1v11.1h-8.8V74.4h16.9c10.2,0,16,4.9,16,13.5
			c0,6-2.6,10.3-7.3,12.6l8.3,12.9H289.9z M274.7,94.9h8.1c4.8,0,7.6-2.2,7.6-6.7c0-4.3-2.8-6.5-7.6-6.5h-8.1V94.9z"/>
	</g>
	<g id="XMLID_3_">
		<path id="XMLID_9_" class="st2" d="M383.7,127.4l-8.8-20l-8.7,20l-1.8,4.1l-4.3,10h-4.7l17.5-38.9h4.6l17.4,38.9h-4.8l-4.4-10
			L383.7,127.4z"/>
		<path id="XMLID_7_" class="st2" d="M474.9,102.6v4.1h-22v13.1h19.6v4.1h-19.6v13.6h22.7v4.1h-27.1v-38.9H474.9z"/>
		<path id="XMLID_5_" class="st2" d="M499.3,106.7c-5,0-8.3,2-8.3,5.3c0,10.1,21.9,4.8,21.9,19c0,6.5-5.7,10.6-14.1,10.6
			c-5.7,0-11.2-2.4-14.9-6l2-3.8c3.6,3.4,8.6,5.5,13,5.5c5.6,0,9.1-2.3,9.1-6.1c0.1-10.4-21.9-4.9-21.9-18.9c0-6.1,5.4-10,13.5-10
			c4.5,0,9.1,1.4,12.3,3.6L510,110C506.5,107.7,502.4,106.7,499.3,106.7z"/>
		<path id="XMLID_4_" class="st2" d="M421.7,123.8h8.6v10.5c-3,2.1-6.7,3.3-10.2,3.3c-8.9,0-16.1-6.9-16.1-15.6
			c0-8.6,7.1-15.5,16-15.5c4.3,0,8.6,1.7,11.8,4.5l2.6-3.2c-3.7-3.3-9-5.3-14.4-5.3c-11.5,0-20.5,8.6-20.5,19.6
			c0,11,9,19.6,20.3,19.6c5.2,0,10.6-2,14.5-5.1l0-16.9h-12.6V123.8z"/>
	</g>
</g>
</svg>
