<?xml version="1.0" encoding="utf-8"?>
<!-- Generator: Adobe Illustrator 19.0.0, SVG Export Plug-In . SVG Version: 6.00 Build 0)  -->
<svg version="1.1" id="Calque_1" xmlns="http://www.w3.org/2000/svg" xmlns:xlink="http://www.w3.org/1999/xlink" x="0px" y="0px"
	 viewBox="0 0 1028.9 529.5" style="enable-background:new 0 0 1028.9 529.5;" xml:space="preserve">
<style type="text/css">
	.st0{fill:#FFFFFF;}
	.st1{fill:#00A2A8;}
	.st2{fill:#008082;}
	.st3{fill:#005B7C;}
	.st4{fill:#32DB72;}
	.st5{fill:#44E38F;}
	.st6{fill:#57EBBD;}
	.st7{fill:#3AD0B6;}
	.st8{fill:#22B4AF;}
</style>
<g>
	<g>
		<path class="st0" d="M608.2,174.1l10.3-45.4h12.2v77.3h-11.1l1.2-50.6l-8.3,36.6H604l-8.3-36.6l1.2,50.6h-11.1v-77.3H598
			L608.2,174.1z"/>
		<path class="st0" d="M644,205.9v-77.3h27.5v9.4h-16.4v23.5h14.5v9.4h-14.5v25.7h16.4v9.4H644z"/>
		<path class="st0" d="M682.3,205.9v-77.3h19.3c10.4,0,15.6,5,15.6,14.9v51.2c0,7.5-4.4,11.2-13.3,11.2H682.3z M693.4,196.6h8.3
			c2.9,0,4.4-1.1,4.4-3.4v-49.5c0-3.7-1.7-5.6-5-5.6h-7.7V196.6z"/>
		<path class="st0" d="M729.9,205.9v-77.3h11.1v77.3H729.9z"/>
		<path class="st0" d="M764.7,205.9h-11.1v-64c0-8.8,4.4-13.2,13.3-13.2h8.3c8.8,0,13.3,4.4,13.3,13.2v64h-11.1v-28.3h-12.7V205.9z
			 M777.4,168.2v-25.7c0-3-1.6-4.5-4.8-4.5h-3c-3.2,0-4.8,1.5-4.8,4.5v25.7H777.4z"/>
		<path class="st0" d="M585.7,314.3V237h27.5v9.4h-16.4v23.5h14.5v9.4h-14.5v25.7h16.4v9.4H585.7z"/>
		<path class="st0" d="M647,274.3V237h11.1v77.3H647v-15.4l-11.9-35.2v50.6h-11.1V237h11.1L647,274.3z"/>
		<path class="st0" d="M688.4,286v-9.4h16.8v37.7h-21.7c-8.5,0-12.8-4.3-12.8-13v-51c0-8.8,4.3-13.2,12.8-13.2h7.6
			c9.4,0,14.1,4.5,14.1,13.5v8.4h-11.1V252c0-3.7-1.6-5.6-4.7-5.6h-2.8c-3.2,0-4.8,1.9-4.8,5.6v47.4c0,3.7,1.6,5.6,4.8,5.6h7.5V286
			H688.4z"/>
		<path class="st0" d="M717.2,314.3V237h11.1v77.3H717.2z"/>
		<path class="st0" d="M764.5,274.3V237h11.1v77.3h-11.1v-15.4l-11.9-35.2v50.6h-11.1V237h11.1L764.5,274.3z"/>
		<path class="st0" d="M788.8,314.3V237h27.5v9.4h-16.4v23.5h14.5v9.4h-14.5v25.7h16.4v9.4H788.8z"/>
		<path class="st0" d="M827.1,314.3V237h27.5v9.4h-16.4v23.5h14.5v9.4h-14.5v25.7h16.4v9.4H827.1z"/>
		<path class="st0" d="M865.5,237h21.7c8.5,0,12.7,4.4,12.7,13.2v19c0,6.7-2.2,11-6.6,12.8l7.7,32.2h-10.5l-7.3-31.2h-6.7v31.2
			h-11.1V237z M876.5,274.2h7.3c3.3,0,5-1.9,5-5.6V252c0-3.7-1.7-5.6-5-5.6h-7.3V274.2z"/>
		<path class="st0" d="M912,314.3V237H923v77.3H912z"/>
		<path class="st0" d="M959.3,274.3V237h11.1v77.3h-11.1v-15.4l-11.9-35.2v50.6h-11.1V237h11.1L959.3,274.3z"/>
		<path class="st0" d="M1000.7,286v-9.4h16.8v37.7h-21.7c-8.5,0-12.8-4.3-12.8-13v-51c0-8.8,4.3-13.2,12.8-13.2h7.6
			c9.4,0,14.1,4.5,14.1,13.5v8.4h-11.1V252c0-3.7-1.6-5.6-4.7-5.6H999c-3.2,0-4.8,1.9-4.8,5.6v47.4c0,3.7,1.6,5.6,4.8,5.6h7.5V286
			H1000.7z"/>
		<path class="st0" d="M585.7,422.6v-77.3h11.1v77.3H585.7z"/>
		<path class="st0" d="M633,382.7v-37.3h11.1v77.3H633v-15.4l-11.9-35.2v50.6h-11.1v-77.3h11.1L633,382.7z"/>
		<path class="st0" d="M678.6,366.1v-6.8c0-3.1-1.6-4.6-4.8-4.6h-1.7c-3.2,0-4.7,1.5-4.7,4.6v12.8c0,1.4,0.3,2.4,0.9,2.9
			c0.6,0.5,1.6,1.1,3,1.9l10.5,5.3c2.3,1.2,3.9,2.2,4.9,2.9c1,0.7,1.7,1.5,2.3,2.5c0.5,1,0.8,2.8,0.8,5.5v16.5c0,8.7-4.5,13-13.4,13
			h-6.8c-8.8,0-13.3-4.7-13.3-14.2v-3.9h11.1v4.2c0,3,1.7,4.5,5,4.5h2c2.9,0,4.4-1.5,4.4-4.5v-13.1c0-1.4-0.3-2.4-0.9-2.9
			c-0.6-0.5-1.6-1.1-3-1.9l-10.5-5.5c-2.3-1.1-4-2.1-5-2.9c-1-0.8-1.8-1.8-2.3-3.1c-0.5-1.3-0.7-2.9-0.7-4.9v-15.8
			c0-8.8,4.4-13.2,13.3-13.2h6.9c8.8,0,13.3,4.4,13.3,13.2v7.5H678.6z"/>
		<path class="st0" d="M719.5,354.7v67.9h-11.1v-67.9h-10.6v-9.4h32.3v9.4H719.5z"/>
		<path class="st0" d="M739.3,422.6v-77.3h11.1v77.3H739.3z"/>
		<path class="st0" d="M781.3,354.7v67.9h-11.1v-67.9h-10.6v-9.4h32.3v9.4H781.3z"/>
		<path class="st0" d="M837.2,345.4V408c0,9.8-4.5,14.6-13.4,14.6h-9.3c-8.8,0-13.3-4.9-13.3-14.7v-62.5h11.1v62.8
			c0,3.4,1.6,5.1,4.8,5.1h4.5c3,0,4.5-1.7,4.5-5.1v-62.8H837.2z"/>
		<path class="st0" d="M868.1,354.7v67.9H857v-67.9h-10.6v-9.4h32.3v9.4H868.1z"/>
		<path class="st0" d="M888,422.6v-77.3h27.5v9.4H899v23.5h14.5v9.4H899v25.7h16.4v9.4H888z"/>
	</g>
	<g>
		<polygon class="st1" points="267.9,388.1 267.9,388.2 267.9,388.1 267.9,388.1 		"/>
		<polygon class="st1" points="146.4,266.6 146.4,266.6 146.4,266.7 146.5,266.6 		"/>
		<polygon class="st1" points="267.9,145.2 267.9,145.1 267.9,145.2 267.9,145.2 		"/>
		
			<rect x="389.4" y="266.6" transform="matrix(-0.6601 0.7512 -0.7512 -0.6601 846.7591 150.1403)" class="st1" width="0" height="0"/>
		<path class="st2" d="M146.4,266.6l-111.1-111c0,0,0,0,0,0L146.4,266.6L146.4,266.6z"/>
		<path class="st2" d="M267.9,145.1l-111-111c0,0,0,0,0,0L267.9,145.1L267.9,145.1z"/>
		
			<rect x="242.8" y="205.9" transform="matrix(-0.7071 -0.7071 0.7071 -0.7071 415.4936 583.9058)" class="st3" width="171.8" height="0"/>
		<polygon class="st3" points="146.5,266.6 146.4,266.7 267.9,388.1 267.9,388.1 		"/>
		<path class="st2" d="M389.4,266.7l111,111.1c0,0,0,0,0,0L389.4,266.7L389.4,266.7z"/>
		<path class="st2" d="M267.9,388.2l111,111c0,0,0,0,0,0L267.9,388.2L267.9,388.2z"/>
		<path class="st2" d="M389.4,266.6L389.4,266.6l111.1-111c0,0,0,0,0,0L389.4,266.6z"/>
		<path class="st2" d="M267.9,145.2L379,34.1c0,0,0,0,0,0L267.9,145.2L267.9,145.2z"/>
		<path class="st4" d="M379,34.1c-70-33.5-152-33.5-222.1,0l111,111L379,34.1z"/>
		<path class="st5" d="M389.4,266.6l111-111c-12.3-25.7-29-49.8-50.3-71.1c-21.3-21.3-45.4-38-71.1-50.3l-111,111.1L389.4,266.6z"/>
		<path class="st6" d="M500.5,377.7c33.5-70,33.5-152,0-222.1l-111,111L500.5,377.7z"/>
		<polygon class="st3" points="267.9,388.1 267.9,388.1 389.4,266.7 389.4,266.6 		"/>
		<polygon class="st3" points="267.9,145.2 267.9,145.2 146.4,266.6 146.5,266.6 		"/>
		<path class="st5" d="M267.9,145.2L156.9,34.1c-25.7,12.3-49.8,29-71.1,50.3c-21.3,21.3-38,45.4-50.3,71.1l111.1,111L267.9,145.2z"
			/>
		<polygon class="st6" points="267.9,388.1 389.4,266.6 267.9,145.2 146.5,266.6 		"/>
		<path class="st7" d="M267.9,388.1l111.1,111c25.7-12.3,49.8-29,71.1-50.3c21.3-21.3,38-45.4,50.3-71.1l-111-111.1L267.9,388.1z"/>
		<path class="st2" d="M146.4,266.6L35.4,377.7c0,0,0,0,0,0L146.4,266.6L146.4,266.6z"/>
		<path class="st2" d="M267.9,388.1l-111.1,111c0,0,0,0,0,0L267.9,388.1L267.9,388.1z"/>
		<path class="st6" d="M35.4,155.6c-33.4,70-33.4,152.1,0,222.1l111.1-111.1L35.4,155.6z"/>
		<path class="st7" d="M146.4,266.7L35.4,377.7c12.3,25.7,29,49.8,50.3,71.1c21.3,21.3,45.4,38,71.1,50.3l111.1-111L146.4,266.7z"/>
		<path class="st8" d="M156.9,499.2c70,33.4,152,33.4,222.1,0l-111-111L156.9,499.2z"/>
	</g>
	<g>
		<polygon points="74.2,170.3 74.2,364.2 122.6,364.2 122.6,243 171.1,291.5 207.4,255.2 122.6,170.3 		"/>
		<rect x="413.3" y="170.3" width="48.5" height="193.9"/>
		<polygon points="340.5,218.7 389.3,218.7 389.3,170.3 292.2,170.3 		"/>
		<polygon points="268.1,285.6 366,285.6 366,270.6 344.3,248.8 268.1,248.8 268.1,218.7 316.2,218.7 268,170.5 268,170.3 
			267.8,170.3 219.6,170.3 219.6,170.3 183.1,206.7 219.6,243 219.6,364.2 219.6,364.2 268,364.2 389.3,364.2 389.3,315.7 
			268.1,315.7 		"/>
	</g>
</g>
</svg>
