<?xml version="1.0" encoding="utf-8"?>
<!-- Generator: Adobe Illustrator 19.0.0, SVG Export Plug-In . SVG Version: 6.00 Build 0)  -->
<svg version="1.1" id="Calque_1" xmlns="http://www.w3.org/2000/svg" xmlns:xlink="http://www.w3.org/1999/xlink" x="0px" y="0px"
	 viewBox="0 0 512.5 180.8" style="enable-background:new 0 0 512.5 180.8;" xml:space="preserve">
<style type="text/css">
	.st0{fill:none;stroke:#AE1471;stroke-width:3.4782;stroke-linecap:round;stroke-linejoin:round;stroke-miterlimit:10;}
	.st1{fill:none;stroke:#3FB4D4;stroke-width:3.4782;stroke-linecap:round;stroke-linejoin:round;stroke-miterlimit:10;}
	.st2{fill:none;stroke:#FFFFFF;stroke-width:4.6716;stroke-linecap:round;stroke-linejoin:round;stroke-miterlimit:10;}
	.st3{fill:#FFFFFF;}
</style>
<g id="XMLID_93_">
	<polyline id="XMLID_118_" class="st0" points="261.4,125.9 7.4,125.9 7.4,31.2 352.2,31.2 339.9,59.2 	"/>
	<polygon id="XMLID_117_" class="st1" points="251,149.4 505,149.4 505,58 292.2,60.3 	"/>
	<line id="XMLID_116_" class="st2" x1="266.1" y1="174.4" x2="341.9" y2="5.5"/>
	<g id="XMLID_102_">
		<path id="XMLID_114_" class="st3" d="M71.3,58.1v7.3H50.4v8.5h18.7v7.3H50.4v8.6h21.5v7.3H41.6V58.1H71.3z"/>
		<path id="XMLID_112_" class="st3" d="M100.2,65.5c-6.7,0-11.9,5.2-11.9,12c0,6.8,5.2,12,11.9,12c3.5,0,7.3-1.8,10.1-4.6l5.2,5.6
			c-4.1,4.2-10.1,7-15.7,7c-11.6,0-20.4-8.6-20.4-19.9c0-11.2,9-19.7,20.7-19.7c5.6,0,11.5,2.5,15.4,6.5l-5.1,6.2
			C107.7,67.5,103.8,65.5,100.2,65.5z"/>
		<path id="XMLID_110_" class="st3" d="M132.8,58.1v31.3h16.7v7.7h-25.5V58.1H132.8z"/>
		<path id="XMLID_108_" class="st3" d="M181.2,82.4l-6.1-15.1l-6.2,15.1l-2.9,7.1l-3.1,7.6h-9.1l16.9-38.9h9.1l16.6,38.9h-9.4
			l-3.1-7.6L181.2,82.4z"/>
		<path id="XMLID_106_" class="st3" d="M212.7,58.1v38.9h-8.8V58.1H212.7z"/>
		<path id="XMLID_103_" class="st3" d="M248.5,97.1l-6.2-11.1h-0.8h-8.1v11.1h-8.8V58.1h16.9c10.2,0,16,4.9,16,13.5
			c0,6-2.6,10.3-7.3,12.6l8.3,12.9H248.5z M233.4,78.6h8.1c4.8,0,7.6-2.2,7.6-6.7c0-4.3-2.8-6.5-7.6-6.5h-8.1V78.6z"/>
	</g>
	<g id="XMLID_94_">
		<path id="XMLID_100_" class="st3" d="M342.4,111.1l-8.8-20l-8.7,20l-1.8,4.1l-4.3,10h-4.7l17.5-38.9h4.6l17.4,38.9h-4.8l-4.4-10
			L342.4,111.1z"/>
		<path id="XMLID_98_" class="st3" d="M433.5,86.3v4.1h-22v13.1h19.6v4.1h-19.6v13.6h22.7v4.1h-27.1V86.3H433.5z"/>
		<path id="XMLID_96_" class="st3" d="M457.9,90.4c-5,0-8.3,2-8.3,5.3c0,10.1,21.9,4.8,21.9,19c0,6.5-5.7,10.6-14.1,10.6
			c-5.7,0-11.2-2.4-14.9-6l2-3.8c3.6,3.4,8.6,5.5,13,5.5c5.6,0,9.1-2.3,9.1-6.1c0.1-10.4-21.9-4.9-21.9-18.9c0-6.1,5.4-10,13.5-10
			c4.5,0,9.1,1.4,12.3,3.6l-1.9,3.9C465.2,91.4,461.1,90.4,457.9,90.4z"/>
		<path id="XMLID_95_" class="st3" d="M380.4,107.5h8.6V118c-3,2.1-6.7,3.3-10.2,3.3c-8.9,0-16.1-6.9-16.1-15.6
			c0-8.6,7.1-15.5,16-15.5c4.3,0,8.6,1.7,11.8,4.5l2.6-3.2c-3.7-3.3-9-5.3-14.4-5.3c-11.5,0-20.5,8.6-20.5,19.6
			c0,11,9,19.6,20.3,19.6c5.2,0,10.6-2,14.5-5.1l0-16.9h-12.6V107.5z"/>
	</g>
</g>
</svg>
